<?xml version="1.0" encoding="utf-8"?>
<!-- Generator: Adobe Illustrator 24.0.2, SVG Export Plug-In . SVG Version: 6.00 Build 0)  -->
<svg version="1.1" id="Layer_1" xmlns="http://www.w3.org/2000/svg" xmlns:xlink="http://www.w3.org/1999/xlink" x="0px" y="0px"
	 viewBox="0 0 504 181.19" style="enable-background:new 0 0 504 181.19;" xml:space="preserve">
<style type="text/css">
	.st0{fill:#FFFFFF;}
	.st1{fill:#AFCA0B;}
	.st2{fill:#454544;}
	.st3{fill:#8B8B8B;}
	.st4{fill:#D1D1D1;}
</style>
<g>
	<polygon class="st0" points="76.1,133.8 76.1,69.39 124.93,69.39 124.93,82.64 92.51,82.64 92.51,95.06 118.99,95.06 
		118.99,108.04 92.51,108.04 92.51,120.55 125.41,120.55 125.41,133.8 	"/>
	<path class="st0" d="M167.53,128.83c-4.22,3.31-9.31,5.98-16.6,5.98c-11.8,0-19.76-8.56-19.76-25.12
		c0-16.75,7.96-25.21,19.76-25.21c7.29,0,12.38,2.76,16.6,6.07v-5.06h15.73v67.08h-15.73V128.83z M167.53,117.05v-14.72
		c-3.65-3.96-7.67-5.7-11.61-5.7c-5.85,0-8.83,4.51-8.83,12.97c0,8.56,2.97,13.07,8.83,13.07
		C159.85,122.67,163.88,120.92,167.53,117.05"/>
	<path class="st0" d="M228.06,128.37c-4.7,3.04-11.42,6.44-19.28,6.44c-10.74,0-15.25-5.89-15.25-15.28V85.49h15.83v30.46
		c0,4.14,1.15,7.18,5.85,7.18c4.41,0,9.69-2.85,12.86-5.61V85.49h15.73v48.31h-15.73V128.37z"/>
	<path class="st0" d="M254.06,66.99h16.5v12.33h-16.5V66.99z M254.35,85.49h15.83v48.31h-15.83V85.49z"/>
	<path class="st0" d="M277.66,85.49h6.91V73.34l15.64-1.84v13.99h13.72v11.04h-13.72v20.71c0,4.05,2.3,4.42,4.22,4.42
		c2.3,0,6.14-1.56,7.39-2.02l5.47,11.14c-3.45,1.47-9.98,4.05-17.08,4.05c-10.55,0-15.64-5.71-15.64-17.67V96.53h-6.91V85.49z"/>
	<path class="st0" d="M335.61,112.82c0.77,7.18,4.03,10.86,10.07,10.86c5.28,0,12.18-2.58,18.42-5.71l5.76,9.39
		c-3.84,2.02-14.01,7.45-25.81,7.45c-13.62,0-24.56-7.73-24.56-25.03c0-15.92,9.59-25.3,25.71-25.3c16.31,0,24.37,9.11,24.37,21.44
		c0,4.05-0.86,6.9-0.86,6.9H335.61z M335.7,104.91h18.52c-0.1-6.35-3.07-9.75-8.92-9.75C339.64,95.15,336.57,98.65,335.7,104.91"/>
	<path class="st0" d="M412.17,128.83c-4.22,3.31-9.31,5.98-16.6,5.98c-11.8,0-19.76-8.56-19.76-25.12
		c0-16.75,7.96-25.21,19.76-25.21c7.29,0,12.38,2.76,16.6,6.07v-5.06h15.73v67.08h-15.73V128.83z M412.17,117.05v-14.72
		c-3.65-3.96-7.67-5.7-11.61-5.7c-5.85,0-8.83,4.51-8.83,12.97c0,8.56,2.97,13.07,8.83,13.07
		C404.49,122.67,408.52,120.92,412.17,117.05"/>
	<path class="st1" d="M409.37,48.54c-0.62-0.81-15.33-19.92-36.3-19.92c-0.11,0-0.22,0-0.33,0.01c-0.14,0-0.3-0.01-0.49-0.01
		c-4.44,0-20.09,1.43-35.37,19.79c-0.64,0.77-2.06,2.64-2.06,2.64c0,0.09,1.33,1.89,1.94,2.69c0.55,0.73,12.5,16.23,30.13,19.36
		c1.68,3.66,4.07,8.43,6.16,13.47c2.22-4.93,5.14-10.8,6.38-13.49c7.02-1.33,18.52-5.65,29.8-19.22c0.67-0.8,2.04-2.75,2.04-2.75
		S409.95,49.31,409.37,48.54 M374.88,59.29c-5.79,1.23-10.83-3.61-9.55-9.16c0.65-2.8,3-5.06,5.92-5.68
		c5.79-1.23,10.83,3.61,9.55,9.16C380.15,56.41,377.8,58.67,374.88,59.29 M382.54,67.76c0.92-1.77,2.12-4.18,3.5-7.18
		c1.75-3.8,2.59-8.15,1.93-11.39c-1.37-6.76-7.69-11.79-14.89-11.79c-8.37,0-15.15,6.51-15.15,14.53c0,0-0.33,3.32,2.01,8.53
		c0.79,1.76,2.22,4.33,3.95,7.39c-13.98-4.25-23.42-16.69-23.42-16.69c14.15-17.01,28.3-18.13,31.78-18.13c0.2,0,0.36,0,0.48,0.01
		c0.11,0,0.22-0.01,0.33-0.01c18.88,0,32.59,18.11,32.59,18.11C397.19,61.31,388.72,65.79,382.54,67.76"/>
</g>
</svg>
