<svg xmlns="http://www.w3.org/2000/svg" viewBox="0 0 352 125" width="352" height="125">
	<style>
		tspan { white-space:pre }
		.shp0 { fill: #ffffff } 
		.shp1 { fill: #afca0b } 
	</style>
	<g id="Layer">
		<path id="Layer" class="shp0" d="M0.1 105.8L0.1 41.39L48.93 41.39L48.93 54.64L16.51 54.64L16.51 67.06L42.99 67.06L42.99 80.04L16.51 80.04L16.51 92.55L49.41 92.55L49.41 105.8L0.1 105.8Z" />
		<path id="Layer" fill-rule="evenodd" class="shp0" d="M91.53 100.83C87.31 104.14 82.22 106.81 74.93 106.81C63.13 106.81 55.17 98.25 55.17 81.69C55.17 64.94 63.13 56.48 74.93 56.48C82.22 56.48 87.31 59.24 91.53 62.55L91.53 57.49L107.26 57.49L107.26 124.57L91.53 124.57L91.53 100.83ZM91.53 89.05L91.53 74.33C87.88 70.37 83.86 68.63 79.92 68.63C74.07 68.63 71.09 73.14 71.09 81.6C71.09 90.16 74.06 94.67 79.92 94.67C83.85 94.67 87.88 92.92 91.53 89.05Z" />
		<path id="Layer" class="shp0" d="M152.06 100.37C147.36 103.41 140.64 106.81 132.78 106.81C122.04 106.81 117.53 100.92 117.53 91.53L117.53 57.49L133.36 57.49L133.36 87.95C133.36 92.09 134.51 95.13 139.21 95.13C143.62 95.13 148.9 92.28 152.07 89.52L152.07 57.49L167.8 57.49L167.8 105.8L152.07 105.8L152.07 100.37L152.06 100.37Z" />
		<path id="Layer" class="shp0" d="M178.06 38.99L194.56 38.99L194.56 51.32L178.06 51.32L178.06 38.99ZM178.35 57.49L194.18 57.49L194.18 105.8L178.35 105.8L178.35 57.49Z" />
		<path id="Layer" class="shp0" d="M201.66 57.49L208.57 57.49L208.57 45.34L224.21 43.5L224.21 57.49L237.93 57.49L237.93 68.53L224.21 68.53L224.21 89.24C224.21 93.29 226.51 93.66 228.43 93.66C230.73 93.66 234.57 92.1 235.82 91.64L241.29 102.78C237.84 104.25 231.31 106.83 224.21 106.83C213.66 106.83 208.57 101.12 208.57 89.16L208.57 68.53L201.66 68.53L201.66 57.49L201.66 57.49Z" />
		<path id="Layer" fill-rule="evenodd" class="shp0" d="M269.68 95.68C274.96 95.68 281.86 93.1 288.1 89.97L293.86 99.36C290.02 101.38 279.85 106.81 268.05 106.81C254.43 106.81 243.49 99.08 243.49 81.78C243.49 65.86 253.08 56.48 269.2 56.48C285.51 56.48 293.57 65.59 293.57 77.92C293.57 81.97 292.71 84.82 292.71 84.82L259.61 84.82C260.38 92 263.64 95.68 269.68 95.68ZM259.7 76.91L278.22 76.91C278.12 70.56 275.15 67.16 269.3 67.16C263.64 67.15 260.57 70.65 259.7 76.91Z" />
		<path id="Layer" fill-rule="evenodd" class="shp0" d="M336.17 100.83C331.95 104.14 326.86 106.81 319.57 106.81C307.77 106.81 299.81 98.25 299.81 81.69C299.81 64.94 307.77 56.48 319.57 56.48C326.86 56.48 331.95 59.24 336.17 62.55L336.17 57.49L351.9 57.49L351.9 124.57L336.17 124.57L336.17 100.83ZM336.17 89.05L336.17 74.33C332.52 70.37 328.5 68.63 324.56 68.63C318.71 68.63 315.73 73.14 315.73 81.6C315.73 90.16 318.7 94.67 324.56 94.67C328.49 94.67 332.52 92.92 336.17 89.05Z" />
		<path id="Layer" fill-rule="evenodd" class="shp1" d="M335.27 23.11C335.27 23.11 333.9 25.06 333.23 25.86C321.95 39.43 310.45 43.75 303.43 45.08C302.19 47.77 299.27 53.64 297.05 58.57C294.96 53.53 292.57 48.76 290.89 45.1C273.26 41.97 261.31 26.47 260.76 25.74C260.15 24.94 258.82 23.14 258.82 23.05C258.82 23.05 260.24 21.18 260.88 20.41C276.16 2.05 291.81 0.62 296.25 0.62C296.44 0.62 296.6 0.63 296.74 0.63C296.85 0.62 296.96 0.62 297.07 0.62C318.04 0.62 332.75 19.73 333.37 20.54C333.95 21.31 335.27 23.11 335.27 23.11ZM329.65 23.14C329.65 23.14 315.94 5.03 297.06 5.03C296.95 5.03 296.84 5.04 296.73 5.04C296.61 5.03 296.45 5.03 296.25 5.03C292.77 5.03 278.62 6.15 264.47 23.16C264.47 23.16 273.91 35.6 287.89 39.85C286.16 36.79 284.73 34.22 283.94 32.46C281.6 27.25 281.93 23.93 281.93 23.93C281.93 15.91 288.71 9.4 297.08 9.4C304.28 9.4 310.6 14.43 311.97 21.19C312.63 24.43 311.79 28.78 310.04 32.58C308.66 35.58 307.46 37.99 306.54 39.76C312.72 37.79 321.19 33.31 329.65 23.14ZM304.8 25.61C306.08 20.06 301.04 15.22 295.25 16.45C292.33 17.07 289.98 19.33 289.33 22.13C288.05 27.68 293.09 32.52 298.88 31.29C301.8 30.67 304.15 28.41 304.8 25.61Z" />
	</g>
</svg>